<?xml version="1.0" encoding="UTF-8" standalone="no"?>
<!DOCTYPE svg PUBLIC "-//W3C//DTD SVG 1.1//EN"
 "http://www.w3.org/Graphics/SVG/1.1/DTD/svg11.dtd">
<!-- Generated by graphviz version 13.1.0 (20250701.0955)
 -->
<!-- Title: interface/driver_opt300x_interface.h Pages: 1 -->
<svg width="893pt" height="176pt"
 viewBox="0.00 0.00 893.00 176.00" xmlns="http://www.w3.org/2000/svg" xmlns:xlink="http://www.w3.org/1999/xlink">
<g id="graph0" class="graph" transform="scale(1 1) rotate(0) translate(4 172)">
<title>interface/driver_opt300x_interface.h</title>
<!-- Node1 -->
<g id="Node000001" class="node">
<title>Node1</title>
<g id="a_Node000001"><a xlink:title="driver opt300x interface header file">
<polygon fill="#999999" stroke="#666666" points="533.88,-168 413.62,-168 413.62,-136 533.88,-136 533.88,-168"/>
<text xml:space="preserve" text-anchor="start" x="421.62" y="-154.5" font-family="Helvetica,sans-Serif" font-size="10.00">interface/driver_opt300x</text>
<text xml:space="preserve" text-anchor="middle" x="473.75" y="-142.5" font-family="Helvetica,sans-Serif" font-size="10.00">_interface.h</text>
</a>
</g>
</g>
<!-- Node2 -->
<g id="Node000002" class="node">
<title>Node2</title>
<g id="a_Node000002"><a xlink:href="driver__opt300x__basic_8h.html" target="_top" xlink:title="driver opt300x basic header file">
<polygon fill="white" stroke="#666666" points="119.5,-100 0,-100 0,-68 119.5,-68 119.5,-100"/>
<text xml:space="preserve" text-anchor="start" x="8" y="-86.5" font-family="Helvetica,sans-Serif" font-size="10.00">example/driver_opt300x</text>
<text xml:space="preserve" text-anchor="middle" x="59.75" y="-74.5" font-family="Helvetica,sans-Serif" font-size="10.00">_basic.h</text>
</a>
</g>
</g>
<!-- Node1&#45;&gt;Node2 -->
<g id="edge1_Node000001_Node000002" class="edge">
<title>Node1&#45;&gt;Node2</title>
<g id="a_edge1_Node000001_Node000002"><a xlink:title=" ">
<path fill="none" stroke="#63b8ff" d="M402.1,-141.84C332.16,-132.56 222.84,-117.16 128.75,-100 125.86,-99.47 122.9,-98.91 119.91,-98.33"/>
<polygon fill="#63b8ff" stroke="#63b8ff" points="401.53,-145.29 411.91,-143.13 402.45,-138.36 401.53,-145.29"/>
</a>
</g>
</g>
<!-- Node4 -->
<g id="Node000004" class="node">
<title>Node4</title>
<g id="a_Node000004"><a xlink:href="driver__opt300x__interrupt_8h.html" target="_top" xlink:title="driver opt300x interrupt header file">
<polygon fill="white" stroke="#666666" points="257.5,-100 138,-100 138,-68 257.5,-68 257.5,-100"/>
<text xml:space="preserve" text-anchor="start" x="146" y="-86.5" font-family="Helvetica,sans-Serif" font-size="10.00">example/driver_opt300x</text>
<text xml:space="preserve" text-anchor="middle" x="197.75" y="-74.5" font-family="Helvetica,sans-Serif" font-size="10.00">_interrupt.h</text>
</a>
</g>
</g>
<!-- Node1&#45;&gt;Node4 -->
<g id="edge3_Node000001_Node000004" class="edge">
<title>Node1&#45;&gt;Node4</title>
<g id="a_edge3_Node000001_Node000004"><a xlink:title=" ">
<path fill="none" stroke="#63b8ff" d="M402.06,-133.86C357.22,-123.13 300.13,-109.48 257.7,-99.34"/>
<polygon fill="#63b8ff" stroke="#63b8ff" points="401.17,-137.24 411.71,-136.16 402.8,-130.43 401.17,-137.24"/>
</a>
</g>
</g>
<!-- Node6 -->
<g id="Node000006" class="node">
<title>Node6</title>
<g id="a_Node000006"><a xlink:href="driver__opt300x__shot_8h.html" target="_top" xlink:title="driver opt300x shot header file">
<polygon fill="white" stroke="#666666" points="395.5,-100 276,-100 276,-68 395.5,-68 395.5,-100"/>
<text xml:space="preserve" text-anchor="start" x="284" y="-86.5" font-family="Helvetica,sans-Serif" font-size="10.00">example/driver_opt300x</text>
<text xml:space="preserve" text-anchor="middle" x="335.75" y="-74.5" font-family="Helvetica,sans-Serif" font-size="10.00">_shot.h</text>
</a>
</g>
</g>
<!-- Node1&#45;&gt;Node6 -->
<g id="edge5_Node000001_Node000006" class="edge">
<title>Node1&#45;&gt;Node6</title>
<g id="a_edge5_Node000001_Node000006"><a xlink:title=" ">
<path fill="none" stroke="#63b8ff" d="M431.11,-130.61C410.72,-120.86 386.72,-109.38 367.9,-100.38"/>
<polygon fill="#63b8ff" stroke="#63b8ff" points="429.5,-133.72 440.03,-134.87 432.52,-127.4 429.5,-133.72"/>
</a>
</g>
</g>
<!-- Node8 -->
<g id="Node000008" class="node">
<title>Node8</title>
<g id="a_Node000008"><a xlink:href="driver__opt300x__interface__template_8c.html" target="_top" xlink:title="driver opt300x interface template source file">
<polygon fill="white" stroke="#666666" points="533.88,-100 413.62,-100 413.62,-68 533.88,-68 533.88,-100"/>
<text xml:space="preserve" text-anchor="start" x="421.62" y="-86.5" font-family="Helvetica,sans-Serif" font-size="10.00">interface/driver_opt300x</text>
<text xml:space="preserve" text-anchor="middle" x="473.75" y="-74.5" font-family="Helvetica,sans-Serif" font-size="10.00">_interface_template.c</text>
</a>
</g>
</g>
<!-- Node1&#45;&gt;Node8 -->
<g id="edge7_Node000001_Node000008" class="edge">
<title>Node1&#45;&gt;Node8</title>
<g id="a_edge7_Node000001_Node000008"><a xlink:title=" ">
<path fill="none" stroke="#63b8ff" d="M473.75,-124.31C473.75,-116.12 473.75,-107.38 473.75,-100.22"/>
<polygon fill="#63b8ff" stroke="#63b8ff" points="470.25,-124.18 473.75,-134.18 477.25,-124.18 470.25,-124.18"/>
</a>
</g>
</g>
<!-- Node9 -->
<g id="Node000009" class="node">
<title>Node9</title>
<g id="a_Node000009"><a xlink:href="driver__opt300x__interrupt__test_8h.html" target="_top" xlink:title="driver opt300x interrupt test header file">
<polygon fill="white" stroke="#666666" points="651.38,-100 552.12,-100 552.12,-68 651.38,-68 651.38,-100"/>
<text xml:space="preserve" text-anchor="start" x="560.12" y="-86.5" font-family="Helvetica,sans-Serif" font-size="10.00">test/driver_opt300x</text>
<text xml:space="preserve" text-anchor="middle" x="601.75" y="-74.5" font-family="Helvetica,sans-Serif" font-size="10.00">_interrupt_test.h</text>
</a>
</g>
</g>
<!-- Node1&#45;&gt;Node9 -->
<g id="edge8_Node000001_Node000009" class="edge">
<title>Node1&#45;&gt;Node9</title>
<g id="a_edge8_Node000001_Node000009"><a xlink:title=" ">
<path fill="none" stroke="#63b8ff" d="M513.82,-130.34C532.62,-120.65 554.63,-109.3 571.93,-100.38"/>
<polygon fill="#63b8ff" stroke="#63b8ff" points="512.39,-127.14 505.11,-134.83 515.6,-133.36 512.39,-127.14"/>
</a>
</g>
</g>
<!-- Node11 -->
<g id="Node000011" class="node">
<title>Node11</title>
<g id="a_Node000011"><a xlink:href="driver__opt300x__read__test_8h.html" target="_top" xlink:title="driver opt300x read test header file">
<polygon fill="white" stroke="#666666" points="768.38,-100 669.12,-100 669.12,-68 768.38,-68 768.38,-100"/>
<text xml:space="preserve" text-anchor="start" x="677.12" y="-86.5" font-family="Helvetica,sans-Serif" font-size="10.00">test/driver_opt300x</text>
<text xml:space="preserve" text-anchor="middle" x="718.75" y="-74.5" font-family="Helvetica,sans-Serif" font-size="10.00">_read_test.h</text>
</a>
</g>
</g>
<!-- Node1&#45;&gt;Node11 -->
<g id="edge10_Node000001_Node000011" class="edge">
<title>Node1&#45;&gt;Node11</title>
<g id="a_edge10_Node000001_Node000011"><a xlink:title=" ">
<path fill="none" stroke="#63b8ff" d="M542.24,-132.55C582.41,-121.73 632.25,-108.3 668.72,-98.48"/>
<polygon fill="#63b8ff" stroke="#63b8ff" points="541.4,-129.15 532.65,-135.13 543.22,-135.91 541.4,-129.15"/>
</a>
</g>
</g>
<!-- Node13 -->
<g id="Node000013" class="node">
<title>Node13</title>
<g id="a_Node000013"><a xlink:href="driver__opt300x__register__test_8h.html" target="_top" xlink:title="driver opt300x register test header file">
<polygon fill="white" stroke="#666666" points="885.38,-100 786.12,-100 786.12,-68 885.38,-68 885.38,-100"/>
<text xml:space="preserve" text-anchor="start" x="794.12" y="-86.5" font-family="Helvetica,sans-Serif" font-size="10.00">test/driver_opt300x</text>
<text xml:space="preserve" text-anchor="middle" x="835.75" y="-74.5" font-family="Helvetica,sans-Serif" font-size="10.00">_register_test.h</text>
</a>
</g>
</g>
<!-- Node1&#45;&gt;Node13 -->
<g id="edge12_Node000001_Node000013" class="edge">
<title>Node1&#45;&gt;Node13</title>
<g id="a_edge12_Node000001_Node000013"><a xlink:title=" ">
<path fill="none" stroke="#63b8ff" d="M545.5,-140.76C607.32,-131.51 698.78,-116.8 777.75,-100 780.39,-99.44 783.1,-98.83 785.83,-98.2"/>
<polygon fill="#63b8ff" stroke="#63b8ff" points="545.19,-137.27 535.81,-142.2 546.22,-144.19 545.19,-137.27"/>
</a>
</g>
</g>
<!-- Node3 -->
<g id="Node000003" class="node">
<title>Node3</title>
<g id="a_Node000003"><a xlink:href="driver__opt300x__basic_8c.html" target="_top" xlink:title="driver opt300x basic source file">
<polygon fill="white" stroke="#666666" points="119.5,-32 0,-32 0,0 119.5,0 119.5,-32"/>
<text xml:space="preserve" text-anchor="start" x="8" y="-18.5" font-family="Helvetica,sans-Serif" font-size="10.00">example/driver_opt300x</text>
<text xml:space="preserve" text-anchor="middle" x="59.75" y="-6.5" font-family="Helvetica,sans-Serif" font-size="10.00">_basic.c</text>
</a>
</g>
</g>
<!-- Node2&#45;&gt;Node3 -->
<g id="edge2_Node000002_Node000003" class="edge">
<title>Node2&#45;&gt;Node3</title>
<g id="a_edge2_Node000002_Node000003"><a xlink:title=" ">
<path fill="none" stroke="#63b8ff" d="M59.75,-56.31C59.75,-48.12 59.75,-39.38 59.75,-32.22"/>
<polygon fill="#63b8ff" stroke="#63b8ff" points="56.25,-56.18 59.75,-66.18 63.25,-56.18 56.25,-56.18"/>
</a>
</g>
</g>
<!-- Node5 -->
<g id="Node000005" class="node">
<title>Node5</title>
<g id="a_Node000005"><a xlink:href="driver__opt300x__interrupt_8c.html" target="_top" xlink:title="driver opt300x interrupt source file">
<polygon fill="white" stroke="#666666" points="257.5,-32 138,-32 138,0 257.5,0 257.5,-32"/>
<text xml:space="preserve" text-anchor="start" x="146" y="-18.5" font-family="Helvetica,sans-Serif" font-size="10.00">example/driver_opt300x</text>
<text xml:space="preserve" text-anchor="middle" x="197.75" y="-6.5" font-family="Helvetica,sans-Serif" font-size="10.00">_interrupt.c</text>
</a>
</g>
</g>
<!-- Node4&#45;&gt;Node5 -->
<g id="edge4_Node000004_Node000005" class="edge">
<title>Node4&#45;&gt;Node5</title>
<g id="a_edge4_Node000004_Node000005"><a xlink:title=" ">
<path fill="none" stroke="#63b8ff" d="M197.75,-56.31C197.75,-48.12 197.75,-39.38 197.75,-32.22"/>
<polygon fill="#63b8ff" stroke="#63b8ff" points="194.25,-56.18 197.75,-66.18 201.25,-56.18 194.25,-56.18"/>
</a>
</g>
</g>
<!-- Node7 -->
<g id="Node000007" class="node">
<title>Node7</title>
<g id="a_Node000007"><a xlink:href="driver__opt300x__shot_8c.html" target="_top" xlink:title="driver opt300x shot source file">
<polygon fill="white" stroke="#666666" points="395.5,-32 276,-32 276,0 395.5,0 395.5,-32"/>
<text xml:space="preserve" text-anchor="start" x="284" y="-18.5" font-family="Helvetica,sans-Serif" font-size="10.00">example/driver_opt300x</text>
<text xml:space="preserve" text-anchor="middle" x="335.75" y="-6.5" font-family="Helvetica,sans-Serif" font-size="10.00">_shot.c</text>
</a>
</g>
</g>
<!-- Node6&#45;&gt;Node7 -->
<g id="edge6_Node000006_Node000007" class="edge">
<title>Node6&#45;&gt;Node7</title>
<g id="a_edge6_Node000006_Node000007"><a xlink:title=" ">
<path fill="none" stroke="#63b8ff" d="M335.75,-56.31C335.75,-48.12 335.75,-39.38 335.75,-32.22"/>
<polygon fill="#63b8ff" stroke="#63b8ff" points="332.25,-56.18 335.75,-66.18 339.25,-56.18 332.25,-56.18"/>
</a>
</g>
</g>
<!-- Node10 -->
<g id="Node000010" class="node">
<title>Node10</title>
<g id="a_Node000010"><a xlink:href="driver__opt300x__interrupt__test_8c.html" target="_top" xlink:title="driver opt300x interrupt test source file">
<polygon fill="white" stroke="#666666" points="651.38,-32 552.12,-32 552.12,0 651.38,0 651.38,-32"/>
<text xml:space="preserve" text-anchor="start" x="560.12" y="-18.5" font-family="Helvetica,sans-Serif" font-size="10.00">test/driver_opt300x</text>
<text xml:space="preserve" text-anchor="middle" x="601.75" y="-6.5" font-family="Helvetica,sans-Serif" font-size="10.00">_interrupt_test.c</text>
</a>
</g>
</g>
<!-- Node9&#45;&gt;Node10 -->
<g id="edge9_Node000009_Node000010" class="edge">
<title>Node9&#45;&gt;Node10</title>
<g id="a_edge9_Node000009_Node000010"><a xlink:title=" ">
<path fill="none" stroke="#63b8ff" d="M601.75,-56.31C601.75,-48.12 601.75,-39.38 601.75,-32.22"/>
<polygon fill="#63b8ff" stroke="#63b8ff" points="598.25,-56.18 601.75,-66.18 605.25,-56.18 598.25,-56.18"/>
</a>
</g>
</g>
<!-- Node12 -->
<g id="Node000012" class="node">
<title>Node12</title>
<g id="a_Node000012"><a xlink:href="driver__opt300x__read__test_8c.html" target="_top" xlink:title="driver opt300x read test source file">
<polygon fill="white" stroke="#666666" points="768.38,-32 669.12,-32 669.12,0 768.38,0 768.38,-32"/>
<text xml:space="preserve" text-anchor="start" x="677.12" y="-18.5" font-family="Helvetica,sans-Serif" font-size="10.00">test/driver_opt300x</text>
<text xml:space="preserve" text-anchor="middle" x="718.75" y="-6.5" font-family="Helvetica,sans-Serif" font-size="10.00">_read_test.c</text>
</a>
</g>
</g>
<!-- Node11&#45;&gt;Node12 -->
<g id="edge11_Node000011_Node000012" class="edge">
<title>Node11&#45;&gt;Node12</title>
<g id="a_edge11_Node000011_Node000012"><a xlink:title=" ">
<path fill="none" stroke="#63b8ff" d="M718.75,-56.31C718.75,-48.12 718.75,-39.38 718.75,-32.22"/>
<polygon fill="#63b8ff" stroke="#63b8ff" points="715.25,-56.18 718.75,-66.18 722.25,-56.18 715.25,-56.18"/>
</a>
</g>
</g>
<!-- Node14 -->
<g id="Node000014" class="node">
<title>Node14</title>
<g id="a_Node000014"><a xlink:href="driver__opt300x__register__test_8c.html" target="_top" xlink:title="driver opt300x register test source file">
<polygon fill="white" stroke="#666666" points="885.38,-32 786.12,-32 786.12,0 885.38,0 885.38,-32"/>
<text xml:space="preserve" text-anchor="start" x="794.12" y="-18.5" font-family="Helvetica,sans-Serif" font-size="10.00">test/driver_opt300x</text>
<text xml:space="preserve" text-anchor="middle" x="835.75" y="-6.5" font-family="Helvetica,sans-Serif" font-size="10.00">_register_test.c</text>
</a>
</g>
</g>
<!-- Node13&#45;&gt;Node14 -->
<g id="edge13_Node000013_Node000014" class="edge">
<title>Node13&#45;&gt;Node14</title>
<g id="a_edge13_Node000013_Node000014"><a xlink:title=" ">
<path fill="none" stroke="#63b8ff" d="M835.75,-56.31C835.75,-48.12 835.75,-39.38 835.75,-32.22"/>
<polygon fill="#63b8ff" stroke="#63b8ff" points="832.25,-56.18 835.75,-66.18 839.25,-56.18 832.25,-56.18"/>
</a>
</g>
</g>
</g>
</svg>
