<?xml version="1.0" encoding="UTF-8" standalone="no"?>
<!DOCTYPE svg PUBLIC "-//W3C//DTD SVG 1.1//EN"
 "http://www.w3.org/Graphics/SVG/1.1/DTD/svg11.dtd">
<!-- Generated by graphviz version 13.1.0 (20250701.0955)
 -->
<!-- Title: opt300x_shot_init Pages: 1 -->
<svg width="443pt" height="672pt"
 viewBox="0.00 0.00 443.00 672.00" xmlns="http://www.w3.org/2000/svg" xmlns:xlink="http://www.w3.org/1999/xlink">
<g id="graph0" class="graph" transform="scale(1 1) rotate(0) translate(4 668)">
<title>opt300x_shot_init</title>
<!-- Node1 -->
<g id="Node000001" class="node">
<title>Node1</title>
<g id="a_Node000001"><a xlink:title="shot example init">
<polygon fill="#999999" stroke="#666666" points="92.5,-348 0,-348 0,-328 92.5,-328 92.5,-348"/>
<text xml:space="preserve" text-anchor="middle" x="46.25" y="-334.5" font-family="Helvetica,sans-Serif" font-size="10.00">opt300x_shot_init</text>
</a>
</g>
</g>
<!-- Node2 -->
<g id="Node000002" class="node">
<title>Node2</title>
<g id="a_Node000002"><a xlink:href="group__opt300x__base__driver.html#gae1f16eb4c0c8757b832e4e10bb1b001f" target="_top" xlink:title="set range">
<polygon fill="white" stroke="#666666" points="250.62,-664 152.12,-664 152.12,-644 250.62,-644 250.62,-664"/>
<text xml:space="preserve" text-anchor="middle" x="201.38" y="-650.5" font-family="Helvetica,sans-Serif" font-size="10.00">opt3002_set_range</text>
</a>
</g>
</g>
<!-- Node1&#45;&gt;Node2 -->
<g id="edge1_Node000001_Node000002" class="edge">
<title>Node1&#45;&gt;Node2</title>
<g id="a_edge1_Node000001_Node000002"><a xlink:title=" ">
<path fill="none" stroke="#63b8ff" d="M46.69,-348.47C45.01,-390.92 44.6,-551.82 128.5,-635 132.31,-638.78 136.78,-641.83 141.59,-644.29"/>
<polygon fill="#63b8ff" stroke="#63b8ff" points="139.87,-647.37 150.45,-647.98 142.56,-640.9 139.87,-647.37"/>
</a>
</g>
</g>
<!-- Node3 -->
<g id="Node000003" class="node">
<title>Node3</title>
<g id="a_Node000003"><a xlink:href="group__opt300x__base__driver.html#ga1ed4a1419817d83898a70d1d3f0bc8d7" target="_top" xlink:title="set range">
<polygon fill="white" stroke="#666666" points="250.62,-626 152.12,-626 152.12,-606 250.62,-606 250.62,-626"/>
<text xml:space="preserve" text-anchor="middle" x="201.38" y="-612.5" font-family="Helvetica,sans-Serif" font-size="10.00">opt3005_set_range</text>
</a>
</g>
</g>
<!-- Node1&#45;&gt;Node3 -->
<g id="edge2_Node000001_Node000003" class="edge">
<title>Node1&#45;&gt;Node3</title>
<g id="a_edge2_Node000001_Node000003"><a xlink:title=" ">
<path fill="none" stroke="#63b8ff" d="M47.18,-348.47C47.5,-387.48 54.05,-525.87 128.5,-597 132.22,-600.56 136.53,-603.47 141.15,-605.84"/>
<polygon fill="#63b8ff" stroke="#63b8ff" points="139.69,-609.03 150.26,-609.66 142.39,-602.57 139.69,-609.03"/>
</a>
</g>
</g>
<!-- Node4 -->
<g id="Node000004" class="node">
<title>Node4</title>
<g id="a_Node000004"><a xlink:href="group__opt300x__base__driver.html#gaa61dc8b8d4a5d7ca4fd33942e6acaa6c" target="_top" xlink:title="close the chip">
<polygon fill="white" stroke="#666666" points="240.88,-588 161.88,-588 161.88,-568 240.88,-568 240.88,-588"/>
<text xml:space="preserve" text-anchor="middle" x="201.38" y="-574.5" font-family="Helvetica,sans-Serif" font-size="10.00">opt300x_deinit</text>
</a>
</g>
</g>
<!-- Node1&#45;&gt;Node4 -->
<g id="edge3_Node000001_Node000004" class="edge">
<title>Node1&#45;&gt;Node4</title>
<g id="a_edge3_Node000001_Node000004"><a xlink:title=" ">
<path fill="none" stroke="#63b8ff" d="M47.82,-348.39C50.31,-383.63 63.35,-499.7 128.5,-559 134.8,-564.74 142.64,-568.78 150.8,-571.62"/>
<polygon fill="#63b8ff" stroke="#63b8ff" points="149.57,-574.91 160.15,-574.29 151.49,-568.18 149.57,-574.91"/>
</a>
</g>
</g>
<!-- Node5 -->
<g id="Node000005" class="node">
<title>Node5</title>
<g id="a_Node000005"><a xlink:href="group__opt300x__base__driver.html#gada3fa1d08835524df7fc1745e2f4ad70" target="_top" xlink:title="initialize the chip">
<polygon fill="white" stroke="#666666" points="235.62,-550 167.12,-550 167.12,-530 235.62,-530 235.62,-550"/>
<text xml:space="preserve" text-anchor="middle" x="201.38" y="-536.5" font-family="Helvetica,sans-Serif" font-size="10.00">opt300x_init</text>
</a>
</g>
</g>
<!-- Node1&#45;&gt;Node5 -->
<g id="edge4_Node000001_Node000005" class="edge">
<title>Node1&#45;&gt;Node5</title>
<g id="a_edge4_Node000001_Node000005"><a xlink:title=" ">
<path fill="none" stroke="#63b8ff" d="M48.96,-348.12C54.57,-378.23 75.2,-468.07 128.5,-516 136.18,-522.9 145.9,-527.83 155.69,-531.34"/>
<polygon fill="#63b8ff" stroke="#63b8ff" points="154.64,-534.68 165.23,-534.29 156.71,-527.99 154.64,-534.68"/>
</a>
</g>
</g>
<!-- Node6 -->
<g id="Node000006" class="node">
<title>Node6</title>
<g id="a_Node000006"><a xlink:href="group__opt300x__interface__driver.html#ga6947e13d8829bae843221a116163ef89" target="_top" xlink:title="interface print format data">
<polygon fill="white" stroke="#666666" points="435,-389 310.25,-389 310.25,-357 435,-357 435,-389"/>
<text xml:space="preserve" text-anchor="start" x="318.25" y="-375.5" font-family="Helvetica,sans-Serif" font-size="10.00">opt300x_interface_debug</text>
<text xml:space="preserve" text-anchor="middle" x="372.62" y="-363.5" font-family="Helvetica,sans-Serif" font-size="10.00">_print</text>
</a>
</g>
</g>
<!-- Node1&#45;&gt;Node6 -->
<g id="edge5_Node000001_Node000006" class="edge">
<title>Node1&#45;&gt;Node6</title>
<g id="a_edge5_Node000001_Node000006"><a xlink:title=" ">
<path fill="none" stroke="#63b8ff" d="M49.29,-348.18C55.44,-375.9 76.71,-452.66 128.5,-483 184.39,-515.75 215.18,-509.6 274.25,-483 312.23,-465.9 341.38,-425.85 357.51,-399.09"/>
<polygon fill="#63b8ff" stroke="#63b8ff" points="360.49,-400.93 362.48,-390.53 354.43,-397.42 360.49,-400.93"/>
</a>
</g>
</g>
<!-- Node7 -->
<g id="Node000007" class="node">
<title>Node7</title>
<g id="a_Node000007"><a xlink:href="group__opt300x__interface__driver.html#ga3c595682b063f17872b698b6396eeab2" target="_top" xlink:title="interface delay ms">
<polygon fill="white" stroke="#666666" points="271.62,-474 131.12,-474 131.12,-454 271.62,-454 271.62,-474"/>
<text xml:space="preserve" text-anchor="middle" x="201.38" y="-460.5" font-family="Helvetica,sans-Serif" font-size="10.00">opt300x_interface_delay_ms</text>
</a>
</g>
</g>
<!-- Node1&#45;&gt;Node7 -->
<g id="edge6_Node000001_Node000007" class="edge">
<title>Node1&#45;&gt;Node7</title>
<g id="a_edge6_Node000001_Node000007"><a xlink:title=" ">
<path fill="none" stroke="#63b8ff" d="M52.12,-348.36C62.78,-369.86 90.32,-419.44 128.5,-445 130.59,-446.4 132.78,-447.7 135.04,-448.9"/>
<polygon fill="#63b8ff" stroke="#63b8ff" points="133.4,-452 143.95,-452.95 136.3,-445.62 133.4,-452"/>
</a>
</g>
</g>
<!-- Node8 -->
<g id="Node000008" class="node">
<title>Node8</title>
<g id="a_Node000008"><a xlink:href="group__opt300x__interface__driver.html#gaf016e5f01a3eebc13846e4a7f06262e1" target="_top" xlink:title="interface iic bus deinit">
<polygon fill="white" stroke="#666666" points="255.5,-436 147.25,-436 147.25,-404 255.5,-404 255.5,-436"/>
<text xml:space="preserve" text-anchor="start" x="155.25" y="-422.5" font-family="Helvetica,sans-Serif" font-size="10.00">opt300x_interface_iic</text>
<text xml:space="preserve" text-anchor="middle" x="201.38" y="-410.5" font-family="Helvetica,sans-Serif" font-size="10.00">_deinit</text>
</a>
</g>
</g>
<!-- Node1&#45;&gt;Node8 -->
<g id="edge7_Node000001_Node000008" class="edge">
<title>Node1&#45;&gt;Node8</title>
<g id="a_edge7_Node000001_Node000008"><a xlink:title=" ">
<path fill="none" stroke="#63b8ff" d="M59.77,-348.46C75.15,-360.89 102.43,-381.65 128.5,-395 131.37,-396.47 134.34,-397.88 137.37,-399.24"/>
<polygon fill="#63b8ff" stroke="#63b8ff" points="135.87,-402.41 146.45,-403.05 138.58,-395.95 135.87,-402.41"/>
</a>
</g>
</g>
<!-- Node9 -->
<g id="Node000009" class="node">
<title>Node9</title>
<g id="a_Node000009"><a xlink:href="group__opt300x__interface__driver.html#gac6ffed60cc13d25e0313d21cdab0d16d" target="_top" xlink:title="interface iic bus init">
<polygon fill="white" stroke="#666666" points="264.5,-386 138.25,-386 138.25,-366 264.5,-366 264.5,-386"/>
<text xml:space="preserve" text-anchor="middle" x="201.38" y="-372.5" font-family="Helvetica,sans-Serif" font-size="10.00">opt300x_interface_iic_init</text>
</a>
</g>
</g>
<!-- Node1&#45;&gt;Node9 -->
<g id="edge8_Node000001_Node000009" class="edge">
<title>Node1&#45;&gt;Node9</title>
<g id="a_edge8_Node000001_Node000009"><a xlink:title=" ">
<path fill="none" stroke="#63b8ff" d="M89.5,-348.48C107.32,-352.91 128.27,-358.11 147.14,-362.79"/>
<polygon fill="#63b8ff" stroke="#63b8ff" points="146.25,-366.17 156.8,-365.19 147.93,-359.38 146.25,-366.17"/>
</a>
</g>
</g>
<!-- Node10 -->
<g id="Node000010" class="node">
<title>Node10</title>
<g id="a_Node000010"><a xlink:href="group__opt300x__interface__driver.html#ga75331ae0946d417bc757a62e511027d7" target="_top" xlink:title="interface iic bus read">
<polygon fill="white" stroke="#666666" points="267.5,-348 135.25,-348 135.25,-328 267.5,-328 267.5,-348"/>
<text xml:space="preserve" text-anchor="middle" x="201.38" y="-334.5" font-family="Helvetica,sans-Serif" font-size="10.00">opt300x_interface_iic_read</text>
</a>
</g>
</g>
<!-- Node1&#45;&gt;Node10 -->
<g id="edge9_Node000001_Node000010" class="edge">
<title>Node1&#45;&gt;Node10</title>
<g id="a_edge9_Node000001_Node000010"><a xlink:title=" ">
<path fill="none" stroke="#63b8ff" d="M92.78,-338C102.49,-338 113,-338 123.52,-338"/>
<polygon fill="#63b8ff" stroke="#63b8ff" points="123.39,-341.5 133.39,-338 123.39,-334.5 123.39,-341.5"/>
</a>
</g>
</g>
<!-- Node11 -->
<g id="Node000011" class="node">
<title>Node11</title>
<g id="a_Node000011"><a xlink:href="group__opt300x__interface__driver.html#gad9b3697ae590dce766cfb478b5033534" target="_top" xlink:title="interface iic bus write">
<polygon fill="white" stroke="#666666" points="255.5,-310 147.25,-310 147.25,-278 255.5,-278 255.5,-310"/>
<text xml:space="preserve" text-anchor="start" x="155.25" y="-296.5" font-family="Helvetica,sans-Serif" font-size="10.00">opt300x_interface_iic</text>
<text xml:space="preserve" text-anchor="middle" x="201.38" y="-284.5" font-family="Helvetica,sans-Serif" font-size="10.00">_write</text>
</a>
</g>
</g>
<!-- Node1&#45;&gt;Node11 -->
<g id="edge10_Node000001_Node000011" class="edge">
<title>Node1&#45;&gt;Node11</title>
<g id="a_edge10_Node000001_Node000011"><a xlink:title=" ">
<path fill="none" stroke="#63b8ff" d="M83.54,-327.57C99.21,-323.07 118.03,-317.66 135.94,-312.51"/>
<polygon fill="#63b8ff" stroke="#63b8ff" points="136.84,-315.9 145.49,-309.77 134.91,-309.17 136.84,-315.9"/>
</a>
</g>
</g>
<!-- Node12 -->
<g id="Node000012" class="node">
<title>Node12</title>
<g id="a_Node000012"><a xlink:href="group__opt300x__interface__driver.html#ga640d34c4653099c8fd8a08e789d68559" target="_top" xlink:title="interface receive callback">
<polygon fill="white" stroke="#666666" points="266.38,-260 136.38,-260 136.38,-228 266.38,-228 266.38,-260"/>
<text xml:space="preserve" text-anchor="start" x="144.38" y="-246.5" font-family="Helvetica,sans-Serif" font-size="10.00">opt300x_interface_receive</text>
<text xml:space="preserve" text-anchor="middle" x="201.38" y="-234.5" font-family="Helvetica,sans-Serif" font-size="10.00">_callback</text>
</a>
</g>
</g>
<!-- Node1&#45;&gt;Node12 -->
<g id="edge11_Node000001_Node000012" class="edge">
<title>Node1&#45;&gt;Node12</title>
<g id="a_edge11_Node000001_Node000012"><a xlink:title=" ">
<path fill="none" stroke="#63b8ff" d="M56.83,-327.74C71.16,-312.93 99.58,-285.53 128.5,-269 130.82,-267.67 133.23,-266.4 135.69,-265.18"/>
<polygon fill="#63b8ff" stroke="#63b8ff" points="137.01,-268.42 144.66,-261.09 134.11,-262.05 137.01,-268.42"/>
</a>
</g>
</g>
<!-- Node13 -->
<g id="Node000013" class="node">
<title>Node13</title>
<g id="a_Node000013"><a xlink:href="group__opt300x__base__driver.html#gad97623deaa4cc5624fd873c0c81b955c" target="_top" xlink:title="set the iic address pin">
<polygon fill="white" stroke="#666666" points="257,-210 145.75,-210 145.75,-190 257,-190 257,-210"/>
<text xml:space="preserve" text-anchor="middle" x="201.38" y="-196.5" font-family="Helvetica,sans-Serif" font-size="10.00">opt300x_set_addr_pin</text>
</a>
</g>
</g>
<!-- Node1&#45;&gt;Node13 -->
<g id="edge13_Node000001_Node000013" class="edge">
<title>Node1&#45;&gt;Node13</title>
<g id="a_edge13_Node000001_Node000013"><a xlink:title=" ">
<path fill="none" stroke="#63b8ff" d="M51.35,-327.55C61.03,-304.26 87.64,-247.87 128.5,-219 130.68,-217.46 132.97,-216.05 135.35,-214.75"/>
<polygon fill="#63b8ff" stroke="#63b8ff" points="136.56,-218.05 144.15,-210.66 133.61,-211.7 136.56,-218.05"/>
</a>
</g>
</g>
<!-- Node14 -->
<g id="Node000014" class="node">
<title>Node14</title>
<g id="a_Node000014"><a xlink:href="group__opt300x__base__driver.html#ga8b293e321579c677c5e58f8da0cbb14a" target="_top" xlink:title="set conversion time">
<polygon fill="white" stroke="#666666" points="274.25,-172 128.5,-172 128.5,-152 274.25,-152 274.25,-172"/>
<text xml:space="preserve" text-anchor="middle" x="201.38" y="-158.5" font-family="Helvetica,sans-Serif" font-size="10.00">opt300x_set_conversion_time</text>
</a>
</g>
</g>
<!-- Node1&#45;&gt;Node14 -->
<g id="edge14_Node000001_Node000014" class="edge">
<title>Node1&#45;&gt;Node14</title>
<g id="a_edge14_Node000001_Node000014"><a xlink:title=" ">
<path fill="none" stroke="#63b8ff" d="M49.5,-327.72C56.19,-299.62 78.7,-220.93 128.5,-181 129.99,-179.81 131.54,-178.69 133.16,-177.64"/>
<polygon fill="#63b8ff" stroke="#63b8ff" points="134.44,-180.92 141.56,-173.08 131.1,-174.77 134.44,-180.92"/>
</a>
</g>
</g>
<!-- Node15 -->
<g id="Node000015" class="node">
<title>Node15</title>
<g id="a_Node000015"><a xlink:href="group__opt300x__base__driver.html#ga0cd75717b083b1b07b082739bc675400" target="_top" xlink:title="set fault count">
<polygon fill="white" stroke="#666666" points="262.62,-134 140.12,-134 140.12,-114 262.62,-114 262.62,-134"/>
<text xml:space="preserve" text-anchor="middle" x="201.38" y="-120.5" font-family="Helvetica,sans-Serif" font-size="10.00">opt300x_set_fault_count</text>
</a>
</g>
</g>
<!-- Node1&#45;&gt;Node15 -->
<g id="edge15_Node000001_Node000015" class="edge">
<title>Node1&#45;&gt;Node15</title>
<g id="a_edge15_Node000001_Node000015"><a xlink:title=" ">
<path fill="none" stroke="#63b8ff" d="M48.37,-327.69C52.47,-295.24 69.63,-194.35 128.5,-143 129.62,-142.02 130.79,-141.09 131.99,-140.21"/>
<polygon fill="#63b8ff" stroke="#63b8ff" points="133.77,-143.23 140.58,-135.11 130.19,-137.21 133.77,-143.23"/>
</a>
</g>
</g>
<!-- Node16 -->
<g id="Node000016" class="node">
<title>Node16</title>
<g id="a_Node000016"><a xlink:href="group__opt300x__base__driver.html#ga246401fd8b19d1471c6c6cd87c70d7ac" target="_top" xlink:title="enable or disable mask exponent">
<polygon fill="white" stroke="#666666" points="273.12,-96 129.62,-96 129.62,-76 273.12,-76 273.12,-96"/>
<text xml:space="preserve" text-anchor="middle" x="201.38" y="-82.5" font-family="Helvetica,sans-Serif" font-size="10.00">opt300x_set_mask_exponent</text>
</a>
</g>
</g>
<!-- Node1&#45;&gt;Node16 -->
<g id="edge16_Node000001_Node000016" class="edge">
<title>Node1&#45;&gt;Node16</title>
<g id="a_edge16_Node000001_Node000016"><a xlink:title=" ">
<path fill="none" stroke="#63b8ff" d="M47.58,-327.82C49.33,-291.66 60.28,-168.15 128.5,-105 129.42,-104.15 130.38,-103.33 131.37,-102.55"/>
<polygon fill="#63b8ff" stroke="#63b8ff" points="133.13,-105.58 139.68,-97.25 129.37,-99.67 133.13,-105.58"/>
</a>
</g>
</g>
<!-- Node17 -->
<g id="Node000017" class="node">
<title>Node17</title>
<g id="a_Node000017"><a xlink:href="group__opt300x__base__driver.html#ga9eb152f867eb53cba6a887ff1a28b2b8" target="_top" xlink:title="set range">
<polygon fill="white" stroke="#666666" points="250.62,-58 152.12,-58 152.12,-38 250.62,-38 250.62,-58"/>
<text xml:space="preserve" text-anchor="middle" x="201.38" y="-44.5" font-family="Helvetica,sans-Serif" font-size="10.00">opt300x_set_range</text>
</a>
</g>
</g>
<!-- Node1&#45;&gt;Node17 -->
<g id="edge17_Node000001_Node000017" class="edge">
<title>Node1&#45;&gt;Node17</title>
<g id="a_edge17_Node000001_Node000017"><a xlink:title=" ">
<path fill="none" stroke="#63b8ff" d="M47.01,-327.62C46.67,-287.61 51.02,-141.97 128.5,-67 132.36,-63.27 136.85,-60.25 141.68,-57.81"/>
<polygon fill="#63b8ff" stroke="#63b8ff" points="142.66,-61.19 150.57,-54.14 139.99,-54.72 142.66,-61.19"/>
</a>
</g>
</g>
<!-- Node18 -->
<g id="Node000018" class="node">
<title>Node18</title>
<g id="a_Node000018"><a xlink:href="group__opt300x__base__driver.html#ga221a256ef3cc0f4e3d1648a2adc189d7" target="_top" xlink:title="set the chip type">
<polygon fill="white" stroke="#666666" points="248,-20 154.75,-20 154.75,0 248,0 248,-20"/>
<text xml:space="preserve" text-anchor="middle" x="201.38" y="-6.5" font-family="Helvetica,sans-Serif" font-size="10.00">opt300x_set_type</text>
</a>
</g>
</g>
<!-- Node1&#45;&gt;Node18 -->
<g id="edge18_Node000001_Node000018" class="edge">
<title>Node1&#45;&gt;Node18</title>
<g id="a_edge18_Node000001_Node000018"><a xlink:title=" ">
<path fill="none" stroke="#63b8ff" d="M48.55,-327.77C54.93,-279.3 84.31,-73.25 128.5,-29 132.89,-24.6 138.17,-21.19 143.85,-18.54"/>
<polygon fill="#63b8ff" stroke="#63b8ff" points="144.86,-21.9 152.98,-15.1 142.39,-15.35 144.86,-21.9"/>
</a>
</g>
</g>
<!-- Node12&#45;&gt;Node6 -->
<g id="edge12_Node000012_Node000006" class="edge">
<title>Node12&#45;&gt;Node6</title>
<g id="a_edge12_Node000012_Node000006"><a xlink:title=" ">
<path fill="none" stroke="#63b8ff" d="M258.21,-260.35C263.81,-262.89 269.27,-265.76 274.25,-269 306.69,-290.09 335.85,-324.25 353.62,-347.62"/>
<polygon fill="#63b8ff" stroke="#63b8ff" points="350.62,-349.45 359.39,-355.39 356.24,-345.27 350.62,-349.45"/>
</a>
</g>
</g>
</g>
</svg>
