<?xml version="1.0" encoding="UTF-8" standalone="no"?>
<!DOCTYPE svg PUBLIC "-//W3C//DTD SVG 1.1//EN"
 "http://www.w3.org/Graphics/SVG/1.1/DTD/svg11.dtd">
<!-- Generated by graphviz version 13.1.0 (20250701.0955)
 -->
<!-- Title: opt300x_basic_init Pages: 1 -->
<svg width="454pt" height="710pt"
 viewBox="0.00 0.00 454.00 710.00" xmlns="http://www.w3.org/2000/svg" xmlns:xlink="http://www.w3.org/1999/xlink">
<g id="graph0" class="graph" transform="scale(1 1) rotate(0) translate(4 706)">
<title>opt300x_basic_init</title>
<!-- Node1 -->
<g id="Node000001" class="node">
<title>Node1</title>
<g id="a_Node000001"><a xlink:title="basic example init">
<polygon fill="#999999" stroke="#666666" points="97,-364 0,-364 0,-344 97,-344 97,-364"/>
<text xml:space="preserve" text-anchor="middle" x="48.5" y="-350.5" font-family="Helvetica,sans-Serif" font-size="10.00">opt300x_basic_init</text>
</a>
</g>
</g>
<!-- Node2 -->
<g id="Node000002" class="node">
<title>Node2</title>
<g id="a_Node000002"><a xlink:href="group__opt300x__base__driver.html#gae1f16eb4c0c8757b832e4e10bb1b001f" target="_top" xlink:title="set range">
<polygon fill="white" stroke="#666666" points="258.12,-702 159.62,-702 159.62,-682 258.12,-682 258.12,-702"/>
<text xml:space="preserve" text-anchor="middle" x="208.88" y="-688.5" font-family="Helvetica,sans-Serif" font-size="10.00">opt3002_set_range</text>
</a>
</g>
</g>
<!-- Node1&#45;&gt;Node2 -->
<g id="edge1_Node000001_Node000002" class="edge">
<title>Node1&#45;&gt;Node2</title>
<g id="a_edge1_Node000001_Node000002"><a xlink:title=" ">
<path fill="none" stroke="#63b8ff" d="M50.78,-364.24C57.16,-413.7 87.09,-627.43 133,-673 137.46,-677.43 142.8,-680.87 148.54,-683.54"/>
<polygon fill="#63b8ff" stroke="#63b8ff" points="147.21,-686.78 157.8,-687.03 149.68,-680.23 147.21,-686.78"/>
</a>
</g>
</g>
<!-- Node3 -->
<g id="Node000003" class="node">
<title>Node3</title>
<g id="a_Node000003"><a xlink:href="group__opt300x__base__driver.html#ga1ed4a1419817d83898a70d1d3f0bc8d7" target="_top" xlink:title="set range">
<polygon fill="white" stroke="#666666" points="258.12,-664 159.62,-664 159.62,-644 258.12,-644 258.12,-664"/>
<text xml:space="preserve" text-anchor="middle" x="208.88" y="-650.5" font-family="Helvetica,sans-Serif" font-size="10.00">opt3005_set_range</text>
</a>
</g>
</g>
<!-- Node1&#45;&gt;Node3 -->
<g id="edge2_Node000001_Node000003" class="edge">
<title>Node1&#45;&gt;Node3</title>
<g id="a_edge2_Node000001_Node000003"><a xlink:title=" ">
<path fill="none" stroke="#63b8ff" d="M49.2,-364.23C48.61,-404.97 52.07,-557.27 133,-635 137.53,-639.35 142.92,-642.75 148.69,-645.4"/>
<polygon fill="#63b8ff" stroke="#63b8ff" points="147.38,-648.64 157.98,-648.86 149.83,-642.08 147.38,-648.64"/>
</a>
</g>
</g>
<!-- Node4 -->
<g id="Node000004" class="node">
<title>Node4</title>
<g id="a_Node000004"><a xlink:href="group__opt300x__base__driver.html#gaa61dc8b8d4a5d7ca4fd33942e6acaa6c" target="_top" xlink:title="close the chip">
<polygon fill="white" stroke="#666666" points="248.38,-626 169.38,-626 169.38,-606 248.38,-606 248.38,-626"/>
<text xml:space="preserve" text-anchor="middle" x="208.88" y="-612.5" font-family="Helvetica,sans-Serif" font-size="10.00">opt300x_deinit</text>
</a>
</g>
</g>
<!-- Node1&#45;&gt;Node4 -->
<g id="edge3_Node000001_Node000004" class="edge">
<title>Node1&#45;&gt;Node4</title>
<g id="a_edge3_Node000001_Node000004"><a xlink:title=" ">
<path fill="none" stroke="#63b8ff" d="M49.75,-364.38C51.26,-401.83 61.62,-531.28 133,-597 139.94,-603.39 148.73,-607.71 157.82,-610.6"/>
<polygon fill="#63b8ff" stroke="#63b8ff" points="156.93,-613.99 167.49,-613.1 158.68,-607.21 156.93,-613.99"/>
</a>
</g>
</g>
<!-- Node5 -->
<g id="Node000005" class="node">
<title>Node5</title>
<g id="a_Node000005"><a xlink:href="group__opt300x__base__driver.html#gada3fa1d08835524df7fc1745e2f4ad70" target="_top" xlink:title="initialize the chip">
<polygon fill="white" stroke="#666666" points="243.12,-588 174.62,-588 174.62,-568 243.12,-568 243.12,-588"/>
<text xml:space="preserve" text-anchor="middle" x="208.88" y="-574.5" font-family="Helvetica,sans-Serif" font-size="10.00">opt300x_init</text>
</a>
</g>
</g>
<!-- Node1&#45;&gt;Node5 -->
<g id="edge4_Node000001_Node000005" class="edge">
<title>Node1&#45;&gt;Node5</title>
<g id="a_edge4_Node000001_Node000005"><a xlink:title=" ">
<path fill="none" stroke="#63b8ff" d="M50.78,-364.44C55.36,-397.34 73.96,-499.8 133,-554 141.45,-561.75 152.41,-567 163.33,-570.56"/>
<polygon fill="#63b8ff" stroke="#63b8ff" points="162.11,-573.85 172.69,-573.17 164,-567.11 162.11,-573.85"/>
</a>
</g>
</g>
<!-- Node6 -->
<g id="Node000006" class="node">
<title>Node6</title>
<g id="a_Node000006"><a xlink:href="group__opt300x__interface__driver.html#ga6947e13d8829bae843221a116163ef89" target="_top" xlink:title="interface print format data">
<polygon fill="white" stroke="#666666" points="445.5,-427 320.75,-427 320.75,-395 445.5,-395 445.5,-427"/>
<text xml:space="preserve" text-anchor="start" x="328.75" y="-413.5" font-family="Helvetica,sans-Serif" font-size="10.00">opt300x_interface_debug</text>
<text xml:space="preserve" text-anchor="middle" x="383.12" y="-401.5" font-family="Helvetica,sans-Serif" font-size="10.00">_print</text>
</a>
</g>
</g>
<!-- Node1&#45;&gt;Node6 -->
<g id="edge5_Node000001_Node000006" class="edge">
<title>Node1&#45;&gt;Node6</title>
<g id="a_edge5_Node000001_Node000006"><a xlink:title=" ">
<path fill="none" stroke="#63b8ff" d="M50.94,-364.33C55.82,-394.91 74.82,-485.04 133,-521 190.37,-556.46 223.25,-548.69 284.75,-521 322.73,-503.9 351.88,-463.85 368.01,-437.09"/>
<polygon fill="#63b8ff" stroke="#63b8ff" points="370.99,-438.93 372.98,-428.53 364.93,-435.42 370.99,-438.93"/>
</a>
</g>
</g>
<!-- Node7 -->
<g id="Node000007" class="node">
<title>Node7</title>
<g id="a_Node000007"><a xlink:href="group__opt300x__interface__driver.html#ga3c595682b063f17872b698b6396eeab2" target="_top" xlink:title="interface delay ms">
<polygon fill="white" stroke="#666666" points="279.12,-512 138.62,-512 138.62,-492 279.12,-492 279.12,-512"/>
<text xml:space="preserve" text-anchor="middle" x="208.88" y="-498.5" font-family="Helvetica,sans-Serif" font-size="10.00">opt300x_interface_delay_ms</text>
</a>
</g>
</g>
<!-- Node1&#45;&gt;Node7 -->
<g id="edge6_Node000001_Node000007" class="edge">
<title>Node1&#45;&gt;Node7</title>
<g id="a_edge6_Node000001_Node000007"><a xlink:title=" ">
<path fill="none" stroke="#63b8ff" d="M53.1,-364.24C62.28,-388.81 89,-451.43 133,-483 134.8,-484.29 136.68,-485.49 138.61,-486.61"/>
<polygon fill="#63b8ff" stroke="#63b8ff" points="136.86,-489.65 147.38,-490.9 139.94,-483.36 136.86,-489.65"/>
</a>
</g>
</g>
<!-- Node8 -->
<g id="Node000008" class="node">
<title>Node8</title>
<g id="a_Node000008"><a xlink:href="group__opt300x__interface__driver.html#gaf016e5f01a3eebc13846e4a7f06262e1" target="_top" xlink:title="interface iic bus deinit">
<polygon fill="white" stroke="#666666" points="263,-474 154.75,-474 154.75,-442 263,-442 263,-474"/>
<text xml:space="preserve" text-anchor="start" x="162.75" y="-460.5" font-family="Helvetica,sans-Serif" font-size="10.00">opt300x_interface_iic</text>
<text xml:space="preserve" text-anchor="middle" x="208.88" y="-448.5" font-family="Helvetica,sans-Serif" font-size="10.00">_deinit</text>
</a>
</g>
</g>
<!-- Node1&#45;&gt;Node8 -->
<g id="edge7_Node000001_Node000008" class="edge">
<title>Node1&#45;&gt;Node8</title>
<g id="a_edge7_Node000001_Node000008"><a xlink:title=" ">
<path fill="none" stroke="#63b8ff" d="M57.9,-364.48C71.83,-381.22 101.33,-414.02 133,-433 136.56,-435.13 140.32,-437.11 144.2,-438.94"/>
<polygon fill="#63b8ff" stroke="#63b8ff" points="142.67,-442.1 153.24,-442.85 145.45,-435.67 142.67,-442.1"/>
</a>
</g>
</g>
<!-- Node9 -->
<g id="Node000009" class="node">
<title>Node9</title>
<g id="a_Node000009"><a xlink:href="group__opt300x__interface__driver.html#gac6ffed60cc13d25e0313d21cdab0d16d" target="_top" xlink:title="interface iic bus init">
<polygon fill="white" stroke="#666666" points="272,-424 145.75,-424 145.75,-404 272,-404 272,-424"/>
<text xml:space="preserve" text-anchor="middle" x="208.88" y="-410.5" font-family="Helvetica,sans-Serif" font-size="10.00">opt300x_interface_iic_init</text>
</a>
</g>
</g>
<!-- Node1&#45;&gt;Node9 -->
<g id="edge8_Node000001_Node000009" class="edge">
<title>Node1&#45;&gt;Node9</title>
<g id="a_edge8_Node000001_Node000009"><a xlink:title=" ">
<path fill="none" stroke="#63b8ff" d="M67.91,-364.43C84.51,-373.49 109.81,-386.47 133,-395 138.29,-396.95 143.87,-398.77 149.49,-400.45"/>
<polygon fill="#63b8ff" stroke="#63b8ff" points="148.26,-403.74 158.83,-403.1 150.17,-397 148.26,-403.74"/>
</a>
</g>
</g>
<!-- Node10 -->
<g id="Node000010" class="node">
<title>Node10</title>
<g id="a_Node000010"><a xlink:href="group__opt300x__interface__driver.html#ga75331ae0946d417bc757a62e511027d7" target="_top" xlink:title="interface iic bus read">
<polygon fill="white" stroke="#666666" points="275,-386 142.75,-386 142.75,-366 275,-366 275,-386"/>
<text xml:space="preserve" text-anchor="middle" x="208.88" y="-372.5" font-family="Helvetica,sans-Serif" font-size="10.00">opt300x_interface_iic_read</text>
</a>
</g>
</g>
<!-- Node1&#45;&gt;Node10 -->
<g id="edge9_Node000001_Node000010" class="edge">
<title>Node1&#45;&gt;Node10</title>
<g id="a_edge9_Node000001_Node000010"><a xlink:title=" ">
<path fill="none" stroke="#63b8ff" d="M97.45,-360.66C108.03,-362.13 119.5,-363.72 130.91,-365.31"/>
<polygon fill="#63b8ff" stroke="#63b8ff" points="130.38,-368.77 140.76,-366.68 131.34,-361.83 130.38,-368.77"/>
</a>
</g>
</g>
<!-- Node11 -->
<g id="Node000011" class="node">
<title>Node11</title>
<g id="a_Node000011"><a xlink:href="group__opt300x__interface__driver.html#gad9b3697ae590dce766cfb478b5033534" target="_top" xlink:title="interface iic bus write">
<polygon fill="white" stroke="#666666" points="263,-348 154.75,-348 154.75,-316 263,-316 263,-348"/>
<text xml:space="preserve" text-anchor="start" x="162.75" y="-334.5" font-family="Helvetica,sans-Serif" font-size="10.00">opt300x_interface_iic</text>
<text xml:space="preserve" text-anchor="middle" x="208.88" y="-322.5" font-family="Helvetica,sans-Serif" font-size="10.00">_write</text>
</a>
</g>
</g>
<!-- Node1&#45;&gt;Node11 -->
<g id="edge10_Node000001_Node000011" class="edge">
<title>Node1&#45;&gt;Node11</title>
<g id="a_edge10_Node000001_Node000011"><a xlink:title=" ">
<path fill="none" stroke="#63b8ff" d="M97.45,-347.34C111.88,-345.33 127.96,-343.1 143.29,-340.97"/>
<polygon fill="#63b8ff" stroke="#63b8ff" points="143.36,-344.5 152.78,-339.65 142.39,-337.56 143.36,-344.5"/>
</a>
</g>
</g>
<!-- Node12 -->
<g id="Node000012" class="node">
<title>Node12</title>
<g id="a_Node000012"><a xlink:href="group__opt300x__interface__driver.html#ga640d34c4653099c8fd8a08e789d68559" target="_top" xlink:title="interface receive callback">
<polygon fill="white" stroke="#666666" points="273.88,-298 143.88,-298 143.88,-266 273.88,-266 273.88,-298"/>
<text xml:space="preserve" text-anchor="start" x="151.88" y="-284.5" font-family="Helvetica,sans-Serif" font-size="10.00">opt300x_interface_receive</text>
<text xml:space="preserve" text-anchor="middle" x="208.88" y="-272.5" font-family="Helvetica,sans-Serif" font-size="10.00">_callback</text>
</a>
</g>
</g>
<!-- Node1&#45;&gt;Node12 -->
<g id="edge11_Node000001_Node000012" class="edge">
<title>Node1&#45;&gt;Node12</title>
<g id="a_edge11_Node000001_Node000012"><a xlink:title=" ">
<path fill="none" stroke="#63b8ff" d="M65.66,-343.68C82.13,-333.45 108.67,-317.79 133,-307 136.55,-305.42 140.24,-303.89 143.98,-302.41"/>
<polygon fill="#63b8ff" stroke="#63b8ff" points="145.1,-305.73 153.21,-298.92 142.62,-299.18 145.1,-305.73"/>
</a>
</g>
</g>
<!-- Node13 -->
<g id="Node000013" class="node">
<title>Node13</title>
<g id="a_Node000013"><a xlink:href="group__opt300x__base__driver.html#gad97623deaa4cc5624fd873c0c81b955c" target="_top" xlink:title="set the iic address pin">
<polygon fill="white" stroke="#666666" points="264.5,-248 153.25,-248 153.25,-228 264.5,-228 264.5,-248"/>
<text xml:space="preserve" text-anchor="middle" x="208.88" y="-234.5" font-family="Helvetica,sans-Serif" font-size="10.00">opt300x_set_addr_pin</text>
</a>
</g>
</g>
<!-- Node1&#45;&gt;Node13 -->
<g id="edge13_Node000001_Node000013" class="edge">
<title>Node1&#45;&gt;Node13</title>
<g id="a_edge13_Node000001_Node000013"><a xlink:title=" ">
<path fill="none" stroke="#63b8ff" d="M55.37,-343.68C67.29,-323.7 96.35,-279.69 133,-257 136.08,-255.09 139.34,-253.38 142.71,-251.84"/>
<polygon fill="#63b8ff" stroke="#63b8ff" points="143.69,-255.21 151.68,-248.26 141.1,-248.71 143.69,-255.21"/>
</a>
</g>
</g>
<!-- Node14 -->
<g id="Node000014" class="node">
<title>Node14</title>
<g id="a_Node000014"><a xlink:href="group__opt300x__base__driver.html#ga8b293e321579c677c5e58f8da0cbb14a" target="_top" xlink:title="set conversion time">
<polygon fill="white" stroke="#666666" points="281.75,-210 136,-210 136,-190 281.75,-190 281.75,-210"/>
<text xml:space="preserve" text-anchor="middle" x="208.88" y="-196.5" font-family="Helvetica,sans-Serif" font-size="10.00">opt300x_set_conversion_time</text>
</a>
</g>
</g>
<!-- Node1&#45;&gt;Node14 -->
<g id="edge14_Node000001_Node000014" class="edge">
<title>Node1&#45;&gt;Node14</title>
<g id="a_edge14_Node000001_Node000014"><a xlink:title=" ">
<path fill="none" stroke="#63b8ff" d="M52.82,-343.67C61.56,-318.23 87.66,-252.24 133,-219 134.74,-217.72 136.57,-216.53 138.45,-215.42"/>
<polygon fill="#63b8ff" stroke="#63b8ff" points="139.56,-218.77 146.93,-211.17 136.42,-212.51 139.56,-218.77"/>
</a>
</g>
</g>
<!-- Node15 -->
<g id="Node000015" class="node">
<title>Node15</title>
<g id="a_Node000015"><a xlink:href="group__opt300x__base__driver.html#ga0cd75717b083b1b07b082739bc675400" target="_top" xlink:title="set fault count">
<polygon fill="white" stroke="#666666" points="270.12,-172 147.62,-172 147.62,-152 270.12,-152 270.12,-172"/>
<text xml:space="preserve" text-anchor="middle" x="208.88" y="-158.5" font-family="Helvetica,sans-Serif" font-size="10.00">opt300x_set_fault_count</text>
</a>
</g>
</g>
<!-- Node1&#45;&gt;Node15 -->
<g id="edge15_Node000001_Node000015" class="edge">
<title>Node1&#45;&gt;Node15</title>
<g id="a_edge15_Node000001_Node000015"><a xlink:title=" ">
<path fill="none" stroke="#63b8ff" d="M51.36,-343.54C57.32,-313.33 78.76,-225.3 133,-181 134.33,-179.91 135.72,-178.89 137.15,-177.92"/>
<polygon fill="#63b8ff" stroke="#63b8ff" points="138.81,-181 145.84,-173.07 135.4,-174.89 138.81,-181"/>
</a>
</g>
</g>
<!-- Node16 -->
<g id="Node000016" class="node">
<title>Node16</title>
<g id="a_Node000016"><a xlink:href="group__opt300x__base__driver.html#ga246401fd8b19d1471c6c6cd87c70d7ac" target="_top" xlink:title="enable or disable mask exponent">
<polygon fill="white" stroke="#666666" points="280.62,-134 137.12,-134 137.12,-114 280.62,-114 280.62,-134"/>
<text xml:space="preserve" text-anchor="middle" x="208.88" y="-120.5" font-family="Helvetica,sans-Serif" font-size="10.00">opt300x_set_mask_exponent</text>
</a>
</g>
</g>
<!-- Node1&#45;&gt;Node16 -->
<g id="edge16_Node000001_Node000016" class="edge">
<title>Node1&#45;&gt;Node16</title>
<g id="a_edge16_Node000001_Node000016"><a xlink:title=" ">
<path fill="none" stroke="#63b8ff" d="M50.34,-343.8C53.73,-309.74 69.39,-198.93 133,-143 134.1,-142.03 135.25,-141.11 136.44,-140.23"/>
<polygon fill="#63b8ff" stroke="#63b8ff" points="138.1,-143.31 144.85,-135.15 134.48,-137.32 138.1,-143.31"/>
</a>
</g>
</g>
<!-- Node17 -->
<g id="Node000017" class="node">
<title>Node17</title>
<g id="a_Node000017"><a xlink:href="group__opt300x__base__driver.html#ga9eb152f867eb53cba6a887ff1a28b2b8" target="_top" xlink:title="set range">
<polygon fill="white" stroke="#666666" points="258.12,-96 159.62,-96 159.62,-76 258.12,-76 258.12,-96"/>
<text xml:space="preserve" text-anchor="middle" x="208.88" y="-82.5" font-family="Helvetica,sans-Serif" font-size="10.00">opt300x_set_range</text>
</a>
</g>
</g>
<!-- Node1&#45;&gt;Node17 -->
<g id="edge17_Node000001_Node000017" class="edge">
<title>Node1&#45;&gt;Node17</title>
<g id="a_edge17_Node000001_Node000017"><a xlink:title=" ">
<path fill="none" stroke="#63b8ff" d="M49.66,-343.64C50.82,-305.63 60.13,-172.6 133,-105 137.55,-100.78 142.9,-97.47 148.61,-94.87"/>
<polygon fill="#63b8ff" stroke="#63b8ff" points="149.62,-98.23 157.77,-91.45 147.17,-91.67 149.62,-98.23"/>
</a>
</g>
</g>
<!-- Node18 -->
<g id="Node000018" class="node">
<title>Node18</title>
<g id="a_Node000018"><a xlink:href="group__opt300x__base__driver.html#ga221a256ef3cc0f4e3d1648a2adc189d7" target="_top" xlink:title="set the chip type">
<polygon fill="white" stroke="#666666" points="255.5,-58 162.25,-58 162.25,-38 255.5,-38 255.5,-58"/>
<text xml:space="preserve" text-anchor="middle" x="208.88" y="-44.5" font-family="Helvetica,sans-Serif" font-size="10.00">opt300x_set_type</text>
</a>
</g>
</g>
<!-- Node1&#45;&gt;Node18 -->
<g id="edge18_Node000001_Node000018" class="edge">
<title>Node1&#45;&gt;Node18</title>
<g id="a_edge18_Node000001_Node000018"><a xlink:title=" ">
<path fill="none" stroke="#63b8ff" d="M49.12,-343.56C48.23,-301.97 50.7,-146.5 133,-67 138.19,-61.99 144.51,-58.24 151.25,-55.45"/>
<polygon fill="#63b8ff" stroke="#63b8ff" points="152.29,-58.79 160.65,-52.29 150.06,-52.16 152.29,-58.79"/>
</a>
</g>
</g>
<!-- Node19 -->
<g id="Node000019" class="node">
<title>Node19</title>
<g id="a_Node000019"><a xlink:href="group__opt300x__base__driver.html#ga4c4e85d329d1b6ee72bb7b5d836477d8" target="_top" xlink:title="start the chip reading">
<polygon fill="white" stroke="#666666" points="284.75,-20 133,-20 133,0 284.75,0 284.75,-20"/>
<text xml:space="preserve" text-anchor="middle" x="208.88" y="-6.5" font-family="Helvetica,sans-Serif" font-size="10.00">opt300x_start_continuous_read</text>
</a>
</g>
</g>
<!-- Node1&#45;&gt;Node19 -->
<g id="edge19_Node000001_Node000019" class="edge">
<title>Node1&#45;&gt;Node19</title>
<g id="a_edge19_Node000001_Node000019"><a xlink:title=" ">
<path fill="none" stroke="#63b8ff" d="M50.75,-343.57C57,-293.18 86.38,-75.48 133,-29 133.75,-28.25 134.52,-27.54 135.32,-26.85"/>
<polygon fill="#63b8ff" stroke="#63b8ff" points="137.12,-29.85 143.36,-21.29 133.14,-24.1 137.12,-29.85"/>
</a>
</g>
</g>
<!-- Node12&#45;&gt;Node6 -->
<g id="edge12_Node000012_Node000006" class="edge">
<title>Node12&#45;&gt;Node6</title>
<g id="a_edge12_Node000012_Node000006"><a xlink:title=" ">
<path fill="none" stroke="#63b8ff" d="M268.43,-298.34C274.13,-300.87 279.67,-303.74 284.75,-307 317.32,-327.89 346.45,-362.09 364.18,-385.53"/>
<polygon fill="#63b8ff" stroke="#63b8ff" points="361.18,-387.36 369.94,-393.32 366.81,-383.2 361.18,-387.36"/>
</a>
</g>
</g>
</g>
</svg>
