<?xml version="1.0" encoding="UTF-8" standalone="no"?>
<!DOCTYPE svg PUBLIC "-//W3C//DTD SVG 1.1//EN"
 "http://www.w3.org/Graphics/SVG/1.1/DTD/svg11.dtd">
<!-- Generated by graphviz version 13.1.0 (20250701.0955)
 -->
<!-- Title: opt300x_basic_deinit Pages: 1 -->
<svg width="303pt" height="66pt"
 viewBox="0.00 0.00 303.00 66.00" xmlns="http://www.w3.org/2000/svg" xmlns:xlink="http://www.w3.org/1999/xlink">
<g id="graph0" class="graph" transform="scale(1 1) rotate(0) translate(4 62)">
<title>opt300x_basic_deinit</title>
<!-- Node1 -->
<g id="Node000001" class="node">
<title>Node1</title>
<g id="a_Node000001"><a xlink:title="basic example deinit">
<polygon fill="#999999" stroke="#666666" points="107.5,-39 0,-39 0,-19 107.5,-19 107.5,-39"/>
<text xml:space="preserve" text-anchor="middle" x="53.75" y="-25.5" font-family="Helvetica,sans-Serif" font-size="10.00">opt300x_basic_deinit</text>
</a>
</g>
</g>
<!-- Node2 -->
<g id="Node000002" class="node">
<title>Node2</title>
<g id="a_Node000002"><a xlink:href="group__opt300x__base__driver.html#gaa61dc8b8d4a5d7ca4fd33942e6acaa6c" target="_top" xlink:title="close the chip">
<polygon fill="white" stroke="#666666" points="258.5,-58 179.5,-58 179.5,-38 258.5,-38 258.5,-58"/>
<text xml:space="preserve" text-anchor="middle" x="219" y="-44.5" font-family="Helvetica,sans-Serif" font-size="10.00">opt300x_deinit</text>
</a>
</g>
</g>
<!-- Node1&#45;&gt;Node2 -->
<g id="edge1_Node000001_Node000002" class="edge">
<title>Node1&#45;&gt;Node2</title>
<g id="a_edge1_Node000001_Node000002"><a xlink:title=" ">
<path fill="none" stroke="#63b8ff" d="M107.75,-35.17C127.12,-37.42 148.95,-39.96 168.04,-42.19"/>
<polygon fill="#63b8ff" stroke="#63b8ff" points="167.38,-45.63 177.72,-43.31 168.19,-38.68 167.38,-45.63"/>
</a>
</g>
</g>
<!-- Node3 -->
<g id="Node000003" class="node">
<title>Node3</title>
<g id="a_Node000003"><a xlink:href="group__opt300x__base__driver.html#gac96da3aa377a7fc36c372021993d9fc2" target="_top" xlink:title="stop the chip reading">
<polygon fill="white" stroke="#666666" points="294.5,-20 143.5,-20 143.5,0 294.5,0 294.5,-20"/>
<text xml:space="preserve" text-anchor="middle" x="219" y="-6.5" font-family="Helvetica,sans-Serif" font-size="10.00">opt300x_stop_continuous_read</text>
</a>
</g>
</g>
<!-- Node1&#45;&gt;Node3 -->
<g id="edge2_Node000001_Node000003" class="edge">
<title>Node1&#45;&gt;Node3</title>
<g id="a_edge2_Node000001_Node000003"><a xlink:title=" ">
<path fill="none" stroke="#63b8ff" d="M107.75,-22.83C115.5,-21.93 123.64,-20.98 131.84,-20.03"/>
<polygon fill="#63b8ff" stroke="#63b8ff" points="131.99,-23.53 141.52,-18.9 131.18,-16.58 131.99,-23.53"/>
</a>
</g>
</g>
</g>
</svg>
