<?xml version="1.0" encoding="UTF-8" standalone="no"?>
<!DOCTYPE svg PUBLIC "-//W3C//DTD SVG 1.1//EN"
 "http://www.w3.org/Graphics/SVG/1.1/DTD/svg11.dtd">
<!-- Generated by graphviz version 13.1.0 (20250701.0955)
 -->
<!-- Title: opt300x_interrupt_init Pages: 1 -->
<svg width="305pt" height="948pt"
 viewBox="0.00 0.00 305.00 948.00" xmlns="http://www.w3.org/2000/svg" xmlns:xlink="http://www.w3.org/1999/xlink">
<g id="graph0" class="graph" transform="scale(1 1) rotate(0) translate(4 944)">
<title>opt300x_interrupt_init</title>
<!-- Node1 -->
<g id="Node000001" class="node">
<title>Node1</title>
<g id="a_Node000001"><a xlink:title="interrupt example init">
<polygon fill="#999999" stroke="#666666" points="109,-468 0,-468 0,-448 109,-448 109,-468"/>
<text xml:space="preserve" text-anchor="middle" x="54.5" y="-454.5" font-family="Helvetica,sans-Serif" font-size="10.00">opt300x_interrupt_init</text>
</a>
</g>
</g>
<!-- Node2 -->
<g id="Node000002" class="node">
<title>Node2</title>
<g id="a_Node000002"><a xlink:href="group__opt300x__base__driver.html#ga88ebc33722a9038c7d16db0265f1245b" target="_top" xlink:title="convert the limit threshold to the register raw data">
<polygon fill="white" stroke="#666666" points="276.5,-940 165.25,-940 165.25,-908 276.5,-908 276.5,-940"/>
<text xml:space="preserve" text-anchor="start" x="173.25" y="-926.5" font-family="Helvetica,sans-Serif" font-size="10.00">opt3002_limit_convert</text>
<text xml:space="preserve" text-anchor="middle" x="220.88" y="-914.5" font-family="Helvetica,sans-Serif" font-size="10.00">_to_register</text>
</a>
</g>
</g>
<!-- Node1&#45;&gt;Node2 -->
<g id="edge1_Node000001_Node000002" class="edge">
<title>Node1&#45;&gt;Node2</title>
<g id="a_edge1_Node000001_Node000002"><a xlink:title=" ">
<path fill="none" stroke="#63b8ff" d="M56.21,-468.25C60.56,-528.05 85.33,-831.57 145,-899 147.98,-902.37 151.43,-905.28 155.17,-907.81"/>
<polygon fill="#63b8ff" stroke="#63b8ff" points="153.24,-910.74 163.67,-912.57 156.66,-904.63 153.24,-910.74"/>
</a>
</g>
</g>
<!-- Node3 -->
<g id="Node000003" class="node">
<title>Node3</title>
<g id="a_Node000003"><a xlink:href="group__opt300x__base__driver.html#gae1f16eb4c0c8757b832e4e10bb1b001f" target="_top" xlink:title="set range">
<polygon fill="white" stroke="#666666" points="270.12,-890 171.62,-890 171.62,-870 270.12,-870 270.12,-890"/>
<text xml:space="preserve" text-anchor="middle" x="220.88" y="-876.5" font-family="Helvetica,sans-Serif" font-size="10.00">opt3002_set_range</text>
</a>
</g>
</g>
<!-- Node1&#45;&gt;Node3 -->
<g id="edge2_Node000001_Node000003" class="edge">
<title>Node1&#45;&gt;Node3</title>
<g id="a_edge2_Node000001_Node000003"><a xlink:title=" ">
<path fill="none" stroke="#63b8ff" d="M56.34,-468.16C61.21,-524.9 87.72,-801.98 145,-861 149.55,-865.69 155.07,-869.28 161.04,-872.02"/>
<polygon fill="#63b8ff" stroke="#63b8ff" points="159.4,-875.14 169.99,-875.35 161.84,-868.58 159.4,-875.14"/>
</a>
</g>
</g>
<!-- Node4 -->
<g id="Node000004" class="node">
<title>Node4</title>
<g id="a_Node000004"><a xlink:href="group__opt300x__base__driver.html#ga1ed4a1419817d83898a70d1d3f0bc8d7" target="_top" xlink:title="set range">
<polygon fill="white" stroke="#666666" points="270.12,-852 171.62,-852 171.62,-832 270.12,-832 270.12,-852"/>
<text xml:space="preserve" text-anchor="middle" x="220.88" y="-838.5" font-family="Helvetica,sans-Serif" font-size="10.00">opt3005_set_range</text>
</a>
</g>
</g>
<!-- Node1&#45;&gt;Node4 -->
<g id="edge3_Node000001_Node000004" class="edge">
<title>Node1&#45;&gt;Node4</title>
<g id="a_edge3_Node000001_Node000004"><a xlink:title=" ">
<path fill="none" stroke="#63b8ff" d="M56.6,-468.25C62.55,-521.93 92.62,-770.19 145,-823 149.43,-827.46 154.74,-830.93 160.47,-833.61"/>
<polygon fill="#63b8ff" stroke="#63b8ff" points="159.13,-836.85 169.72,-837.11 161.61,-830.3 159.13,-836.85"/>
</a>
</g>
</g>
<!-- Node5 -->
<g id="Node000005" class="node">
<title>Node5</title>
<g id="a_Node000005"><a xlink:href="group__opt300x__base__driver.html#gaa61dc8b8d4a5d7ca4fd33942e6acaa6c" target="_top" xlink:title="close the chip">
<polygon fill="white" stroke="#666666" points="260.38,-814 181.38,-814 181.38,-794 260.38,-794 260.38,-814"/>
<text xml:space="preserve" text-anchor="middle" x="220.88" y="-800.5" font-family="Helvetica,sans-Serif" font-size="10.00">opt300x_deinit</text>
</a>
</g>
</g>
<!-- Node1&#45;&gt;Node5 -->
<g id="edge4_Node000001_Node000005" class="edge">
<title>Node1&#45;&gt;Node5</title>
<g id="a_edge4_Node000001_Node000005"><a xlink:title=" ">
<path fill="none" stroke="#63b8ff" d="M56.9,-468.17C63.97,-518.26 97.43,-738.31 145,-785 151.88,-791.75 160.8,-796.21 170.07,-799.13"/>
<polygon fill="#63b8ff" stroke="#63b8ff" points="168.99,-802.47 179.54,-801.53 170.71,-795.68 168.99,-802.47"/>
</a>
</g>
</g>
<!-- Node6 -->
<g id="Node000006" class="node">
<title>Node6</title>
<g id="a_Node000006"><a xlink:href="group__opt300x__base__driver.html#gada3fa1d08835524df7fc1745e2f4ad70" target="_top" xlink:title="initialize the chip">
<polygon fill="white" stroke="#666666" points="255.12,-776 186.62,-776 186.62,-756 255.12,-756 255.12,-776"/>
<text xml:space="preserve" text-anchor="middle" x="220.88" y="-762.5" font-family="Helvetica,sans-Serif" font-size="10.00">opt300x_init</text>
</a>
</g>
</g>
<!-- Node1&#45;&gt;Node6 -->
<g id="edge5_Node000001_Node000006" class="edge">
<title>Node1&#45;&gt;Node6</title>
<g id="a_edge5_Node000001_Node000006"><a xlink:title=" ">
<path fill="none" stroke="#63b8ff" d="M55.34,-468.25C55.28,-509.77 60.82,-667.07 145,-747 153.16,-754.74 164,-759.45 174.91,-762.29"/>
<polygon fill="#63b8ff" stroke="#63b8ff" points="174.19,-765.71 184.69,-764.3 175.6,-758.86 174.19,-765.71"/>
</a>
</g>
</g>
<!-- Node7 -->
<g id="Node000007" class="node">
<title>Node7</title>
<g id="a_Node000007"><a xlink:href="group__opt300x__interface__driver.html#ga6947e13d8829bae843221a116163ef89" target="_top" xlink:title="interface print format data">
<polygon fill="white" stroke="#666666" points="283.25,-738 158.5,-738 158.5,-706 283.25,-706 283.25,-738"/>
<text xml:space="preserve" text-anchor="start" x="166.5" y="-724.5" font-family="Helvetica,sans-Serif" font-size="10.00">opt300x_interface_debug</text>
<text xml:space="preserve" text-anchor="middle" x="220.88" y="-712.5" font-family="Helvetica,sans-Serif" font-size="10.00">_print</text>
</a>
</g>
</g>
<!-- Node1&#45;&gt;Node7 -->
<g id="edge6_Node000001_Node000007" class="edge">
<title>Node1&#45;&gt;Node7</title>
<g id="a_edge6_Node000001_Node000007"><a xlink:title=" ">
<path fill="none" stroke="#63b8ff" d="M56.28,-468.3C59.61,-504.94 75.8,-630.25 145,-697 146.23,-698.19 147.52,-699.32 148.86,-700.4"/>
<polygon fill="#63b8ff" stroke="#63b8ff" points="146.83,-703.25 157.08,-705.92 150.74,-697.44 146.83,-703.25"/>
</a>
</g>
</g>
<!-- Node8 -->
<g id="Node000008" class="node">
<title>Node8</title>
<g id="a_Node000008"><a xlink:href="group__opt300x__interface__driver.html#ga3c595682b063f17872b698b6396eeab2" target="_top" xlink:title="interface delay ms">
<polygon fill="white" stroke="#666666" points="291.12,-688 150.62,-688 150.62,-668 291.12,-668 291.12,-688"/>
<text xml:space="preserve" text-anchor="middle" x="220.88" y="-674.5" font-family="Helvetica,sans-Serif" font-size="10.00">opt300x_interface_delay_ms</text>
</a>
</g>
</g>
<!-- Node1&#45;&gt;Node8 -->
<g id="edge7_Node000001_Node000008" class="edge">
<title>Node1&#45;&gt;Node8</title>
<g id="a_edge7_Node000001_Node000008"><a xlink:title=" ">
<path fill="none" stroke="#63b8ff" d="M56.89,-468.2C61.95,-501.26 82.49,-606.33 145,-659 146.28,-660.08 147.62,-661.1 149,-662.06"/>
<polygon fill="#63b8ff" stroke="#63b8ff" points="146.95,-664.92 157.36,-666.87 150.44,-658.85 146.95,-664.92"/>
</a>
</g>
</g>
<!-- Node9 -->
<g id="Node000009" class="node">
<title>Node9</title>
<g id="a_Node000009"><a xlink:href="group__opt300x__interface__driver.html#gaf016e5f01a3eebc13846e4a7f06262e1" target="_top" xlink:title="interface iic bus deinit">
<polygon fill="white" stroke="#666666" points="275,-650 166.75,-650 166.75,-618 275,-618 275,-650"/>
<text xml:space="preserve" text-anchor="start" x="174.75" y="-636.5" font-family="Helvetica,sans-Serif" font-size="10.00">opt300x_interface_iic</text>
<text xml:space="preserve" text-anchor="middle" x="220.88" y="-624.5" font-family="Helvetica,sans-Serif" font-size="10.00">_deinit</text>
</a>
</g>
</g>
<!-- Node1&#45;&gt;Node9 -->
<g id="edge8_Node000001_Node000009" class="edge">
<title>Node1&#45;&gt;Node9</title>
<g id="a_edge8_Node000001_Node000009"><a xlink:title=" ">
<path fill="none" stroke="#63b8ff" d="M58.69,-468.12C67.69,-495.11 95.91,-569.38 145,-609 148.44,-611.78 152.2,-614.25 156.15,-616.45"/>
<polygon fill="#63b8ff" stroke="#63b8ff" points="154.39,-619.49 164.92,-620.73 157.46,-613.2 154.39,-619.49"/>
</a>
</g>
</g>
<!-- Node10 -->
<g id="Node000010" class="node">
<title>Node10</title>
<g id="a_Node000010"><a xlink:href="group__opt300x__interface__driver.html#gac6ffed60cc13d25e0313d21cdab0d16d" target="_top" xlink:title="interface iic bus init">
<polygon fill="white" stroke="#666666" points="284,-600 157.75,-600 157.75,-580 284,-580 284,-600"/>
<text xml:space="preserve" text-anchor="middle" x="220.88" y="-586.5" font-family="Helvetica,sans-Serif" font-size="10.00">opt300x_interface_iic_init</text>
</a>
</g>
</g>
<!-- Node1&#45;&gt;Node10 -->
<g id="edge9_Node000001_Node000010" class="edge">
<title>Node1&#45;&gt;Node10</title>
<g id="a_edge9_Node000001_Node000010"><a xlink:title=" ">
<path fill="none" stroke="#63b8ff" d="M60.62,-468.29C72.3,-490.66 103.2,-543.93 145,-571 147.15,-572.39 149.39,-573.68 151.71,-574.88"/>
<polygon fill="#63b8ff" stroke="#63b8ff" points="150.28,-578.07 160.84,-578.92 153.12,-571.67 150.28,-578.07"/>
</a>
</g>
</g>
<!-- Node11 -->
<g id="Node000011" class="node">
<title>Node11</title>
<g id="a_Node000011"><a xlink:href="group__opt300x__interface__driver.html#ga75331ae0946d417bc757a62e511027d7" target="_top" xlink:title="interface iic bus read">
<polygon fill="white" stroke="#666666" points="287,-562 154.75,-562 154.75,-542 287,-542 287,-562"/>
<text xml:space="preserve" text-anchor="middle" x="220.88" y="-548.5" font-family="Helvetica,sans-Serif" font-size="10.00">opt300x_interface_iic_read</text>
</a>
</g>
</g>
<!-- Node1&#45;&gt;Node11 -->
<g id="edge10_Node000001_Node000011" class="edge">
<title>Node1&#45;&gt;Node11</title>
<g id="a_edge10_Node000001_Node000011"><a xlink:title=" ">
<path fill="none" stroke="#63b8ff" d="M64.88,-468.43C80.09,-484.7 111.79,-516.01 145,-533 148.45,-534.76 152.07,-536.37 155.78,-537.84"/>
<polygon fill="#63b8ff" stroke="#63b8ff" points="154.4,-541.06 165,-541.09 156.73,-534.46 154.4,-541.06"/>
</a>
</g>
</g>
<!-- Node12 -->
<g id="Node000012" class="node">
<title>Node12</title>
<g id="a_Node000012"><a xlink:href="group__opt300x__interface__driver.html#gad9b3697ae590dce766cfb478b5033534" target="_top" xlink:title="interface iic bus write">
<polygon fill="white" stroke="#666666" points="275,-524 166.75,-524 166.75,-492 275,-492 275,-524"/>
<text xml:space="preserve" text-anchor="start" x="174.75" y="-510.5" font-family="Helvetica,sans-Serif" font-size="10.00">opt300x_interface_iic</text>
<text xml:space="preserve" text-anchor="middle" x="220.88" y="-498.5" font-family="Helvetica,sans-Serif" font-size="10.00">_write</text>
</a>
</g>
</g>
<!-- Node1&#45;&gt;Node12 -->
<g id="edge11_Node000001_Node000012" class="edge">
<title>Node1&#45;&gt;Node12</title>
<g id="a_edge11_Node000001_Node000012"><a xlink:title=" ">
<path fill="none" stroke="#63b8ff" d="M89.96,-468.48C108.97,-474.26 133.2,-481.63 155.57,-488.44"/>
<polygon fill="#63b8ff" stroke="#63b8ff" points="154.33,-491.72 164.92,-491.28 156.37,-485.02 154.33,-491.72"/>
</a>
</g>
</g>
<!-- Node13 -->
<g id="Node000013" class="node">
<title>Node13</title>
<g id="a_Node000013"><a xlink:href="group__opt300x__base__driver.html#ga5cd24b1f0f38bc961732374bfc663d08" target="_top" xlink:title="convert the limit threshold to the register raw data">
<polygon fill="white" stroke="#666666" points="276.5,-474 165.25,-474 165.25,-442 276.5,-442 276.5,-474"/>
<text xml:space="preserve" text-anchor="start" x="173.25" y="-460.5" font-family="Helvetica,sans-Serif" font-size="10.00">opt300x_limit_convert</text>
<text xml:space="preserve" text-anchor="middle" x="220.88" y="-448.5" font-family="Helvetica,sans-Serif" font-size="10.00">_to_register</text>
</a>
</g>
</g>
<!-- Node1&#45;&gt;Node13 -->
<g id="edge12_Node000001_Node000013" class="edge">
<title>Node1&#45;&gt;Node13</title>
<g id="a_edge12_Node000001_Node000013"><a xlink:title=" ">
<path fill="none" stroke="#63b8ff" d="M109.32,-458C123.5,-458 138.96,-458 153.7,-458"/>
<polygon fill="#63b8ff" stroke="#63b8ff" points="153.29,-461.5 163.29,-458 153.29,-454.5 153.29,-461.5"/>
</a>
</g>
</g>
<!-- Node14 -->
<g id="Node000014" class="node">
<title>Node14</title>
<g id="a_Node000014"><a xlink:href="group__opt300x__base__driver.html#gad97623deaa4cc5624fd873c0c81b955c" target="_top" xlink:title="set the iic address pin">
<polygon fill="white" stroke="#666666" points="276.5,-424 165.25,-424 165.25,-404 276.5,-404 276.5,-424"/>
<text xml:space="preserve" text-anchor="middle" x="220.88" y="-410.5" font-family="Helvetica,sans-Serif" font-size="10.00">opt300x_set_addr_pin</text>
</a>
</g>
</g>
<!-- Node1&#45;&gt;Node14 -->
<g id="edge13_Node000001_Node000014" class="edge">
<title>Node1&#45;&gt;Node14</title>
<g id="a_edge13_Node000001_Node000014"><a xlink:title=" ">
<path fill="none" stroke="#63b8ff" d="M92.02,-447.59C108.23,-443.02 127.54,-437.65 145,-433 152.06,-431.12 159.5,-429.18 166.84,-427.29"/>
<polygon fill="#63b8ff" stroke="#63b8ff" points="167.56,-430.72 176.39,-424.85 165.83,-423.94 167.56,-430.72"/>
</a>
</g>
</g>
<!-- Node15 -->
<g id="Node000015" class="node">
<title>Node15</title>
<g id="a_Node000015"><a xlink:href="group__opt300x__base__driver.html#ga8b293e321579c677c5e58f8da0cbb14a" target="_top" xlink:title="set conversion time">
<polygon fill="white" stroke="#666666" points="293.75,-386 148,-386 148,-366 293.75,-366 293.75,-386"/>
<text xml:space="preserve" text-anchor="middle" x="220.88" y="-372.5" font-family="Helvetica,sans-Serif" font-size="10.00">opt300x_set_conversion_time</text>
</a>
</g>
</g>
<!-- Node1&#45;&gt;Node15 -->
<g id="edge14_Node000001_Node000015" class="edge">
<title>Node1&#45;&gt;Node15</title>
<g id="a_edge14_Node000001_Node000015"><a xlink:title=" ">
<path fill="none" stroke="#63b8ff" d="M67.08,-447.72C83.36,-433.79 114.44,-409.05 145,-395 149,-393.16 153.2,-391.48 157.49,-389.95"/>
<polygon fill="#63b8ff" stroke="#63b8ff" points="158.4,-393.34 166.83,-386.92 156.24,-386.68 158.4,-393.34"/>
</a>
</g>
</g>
<!-- Node16 -->
<g id="Node000016" class="node">
<title>Node16</title>
<g id="a_Node000016"><a xlink:href="group__opt300x__base__driver.html#ga0cd75717b083b1b07b082739bc675400" target="_top" xlink:title="set fault count">
<polygon fill="white" stroke="#666666" points="282.12,-348 159.62,-348 159.62,-328 282.12,-328 282.12,-348"/>
<text xml:space="preserve" text-anchor="middle" x="220.88" y="-334.5" font-family="Helvetica,sans-Serif" font-size="10.00">opt300x_set_fault_count</text>
</a>
</g>
</g>
<!-- Node1&#45;&gt;Node16 -->
<g id="edge15_Node000001_Node000016" class="edge">
<title>Node1&#45;&gt;Node16</title>
<g id="a_edge15_Node000001_Node000016"><a xlink:title=" ">
<path fill="none" stroke="#63b8ff" d="M61.68,-447.58C74.48,-426.93 105.98,-380.77 145,-357 147.46,-355.5 150.02,-354.13 152.67,-352.86"/>
<polygon fill="#63b8ff" stroke="#63b8ff" points="153.91,-356.13 161.79,-349.06 151.21,-349.67 153.91,-356.13"/>
</a>
</g>
</g>
<!-- Node17 -->
<g id="Node000017" class="node">
<title>Node17</title>
<g id="a_Node000017"><a xlink:href="group__opt300x__base__driver.html#ga2b7227f27cdf3eebd77a73a88bc96e8d" target="_top" xlink:title="set high limit">
<polygon fill="white" stroke="#666666" points="278.75,-310 163,-310 163,-290 278.75,-290 278.75,-310"/>
<text xml:space="preserve" text-anchor="middle" x="220.88" y="-296.5" font-family="Helvetica,sans-Serif" font-size="10.00">opt300x_set_high_limit</text>
</a>
</g>
</g>
<!-- Node1&#45;&gt;Node17 -->
<g id="edge16_Node000001_Node000017" class="edge">
<title>Node1&#45;&gt;Node17</title>
<g id="a_edge16_Node000001_Node000017"><a xlink:title=" ">
<path fill="none" stroke="#63b8ff" d="M59.05,-447.74C68.58,-421.82 97.24,-353.36 145,-319 147.33,-317.32 149.8,-315.79 152.37,-314.39"/>
<polygon fill="#63b8ff" stroke="#63b8ff" points="153.66,-317.65 161.27,-310.29 150.72,-311.3 153.66,-317.65"/>
</a>
</g>
</g>
<!-- Node18 -->
<g id="Node000018" class="node">
<title>Node18</title>
<g id="a_Node000018"><a xlink:href="group__opt300x__base__driver.html#ga9a494d25a3bae835c26aee48a5f508fa" target="_top" xlink:title="enable or disable interrupt latch">
<polygon fill="white" stroke="#666666" points="275.75,-272 166,-272 166,-240 275.75,-240 275.75,-272"/>
<text xml:space="preserve" text-anchor="start" x="174" y="-258.5" font-family="Helvetica,sans-Serif" font-size="10.00">opt300x_set_interrupt</text>
<text xml:space="preserve" text-anchor="middle" x="220.88" y="-246.5" font-family="Helvetica,sans-Serif" font-size="10.00">_latch</text>
</a>
</g>
</g>
<!-- Node1&#45;&gt;Node18 -->
<g id="edge17_Node000001_Node000018" class="edge">
<title>Node1&#45;&gt;Node18</title>
<g id="a_edge17_Node000001_Node000018"><a xlink:title=" ">
<path fill="none" stroke="#63b8ff" d="M57.73,-447.92C64.87,-417.94 90.02,-328.49 145,-281 148.2,-278.24 151.71,-275.78 155.41,-273.59"/>
<polygon fill="#63b8ff" stroke="#63b8ff" points="156.92,-276.75 164.24,-269.09 153.74,-270.52 156.92,-276.75"/>
</a>
</g>
</g>
<!-- Node19 -->
<g id="Node000019" class="node">
<title>Node19</title>
<g id="a_Node000019"><a xlink:href="group__opt300x__base__driver.html#ga83dcd6312eb736aed623c21f73387ec6" target="_top" xlink:title="set interrupt pin polarity">
<polygon fill="white" stroke="#666666" points="275.75,-222 166,-222 166,-190 275.75,-190 275.75,-222"/>
<text xml:space="preserve" text-anchor="start" x="174" y="-208.5" font-family="Helvetica,sans-Serif" font-size="10.00">opt300x_set_interrupt</text>
<text xml:space="preserve" text-anchor="middle" x="220.88" y="-196.5" font-family="Helvetica,sans-Serif" font-size="10.00">_pin_polarity</text>
</a>
</g>
</g>
<!-- Node1&#45;&gt;Node19 -->
<g id="edge18_Node000001_Node000019" class="edge">
<title>Node1&#45;&gt;Node19</title>
<g id="a_edge18_Node000001_Node000019"><a xlink:title=" ">
<path fill="none" stroke="#63b8ff" d="M56.51,-447.72C60.53,-412.28 78.6,-293.95 145,-231 148.21,-227.96 151.8,-225.29 155.62,-222.94"/>
<polygon fill="#63b8ff" stroke="#63b8ff" points="156.95,-226.19 164.18,-218.45 153.7,-219.99 156.95,-226.19"/>
</a>
</g>
</g>
<!-- Node20 -->
<g id="Node000020" class="node">
<title>Node20</title>
<g id="a_Node000020"><a xlink:href="group__opt300x__base__driver.html#ga542da904f1a67f5159fb20cbb2123a07" target="_top" xlink:title="set low limit">
<polygon fill="white" stroke="#666666" points="277.25,-172 164.5,-172 164.5,-152 277.25,-152 277.25,-172"/>
<text xml:space="preserve" text-anchor="middle" x="220.88" y="-158.5" font-family="Helvetica,sans-Serif" font-size="10.00">opt300x_set_low_limit</text>
</a>
</g>
</g>
<!-- Node1&#45;&gt;Node20 -->
<g id="edge19_Node000001_Node000020" class="edge">
<title>Node1&#45;&gt;Node20</title>
<g id="a_edge19_Node000001_Node000020"><a xlink:title=" ">
<path fill="none" stroke="#63b8ff" d="M55.5,-447.62C56.09,-406.96 63.91,-257.06 145,-181 147.74,-178.43 150.77,-176.2 154.01,-174.25"/>
<polygon fill="#63b8ff" stroke="#63b8ff" points="155.41,-177.47 162.85,-169.93 152.33,-171.18 155.41,-177.47"/>
</a>
</g>
</g>
<!-- Node21 -->
<g id="Node000021" class="node">
<title>Node21</title>
<g id="a_Node000021"><a xlink:href="group__opt300x__base__driver.html#ga246401fd8b19d1471c6c6cd87c70d7ac" target="_top" xlink:title="enable or disable mask exponent">
<polygon fill="white" stroke="#666666" points="292.62,-134 149.12,-134 149.12,-114 292.62,-114 292.62,-134"/>
<text xml:space="preserve" text-anchor="middle" x="220.88" y="-120.5" font-family="Helvetica,sans-Serif" font-size="10.00">opt300x_set_mask_exponent</text>
</a>
</g>
</g>
<!-- Node1&#45;&gt;Node21 -->
<g id="edge20_Node000001_Node000021" class="edge">
<title>Node1&#45;&gt;Node21</title>
<g id="a_edge20_Node000001_Node000021"><a xlink:title=" ">
<path fill="none" stroke="#63b8ff" d="M55.04,-447.76C53.65,-404.03 54.3,-231.17 145,-143 145.89,-142.14 146.81,-141.31 147.77,-140.52"/>
<polygon fill="#63b8ff" stroke="#63b8ff" points="149.41,-143.63 155.79,-135.17 145.53,-137.8 149.41,-143.63"/>
</a>
</g>
</g>
<!-- Node22 -->
<g id="Node000022" class="node">
<title>Node22</title>
<g id="a_Node000022"><a xlink:href="group__opt300x__base__driver.html#ga9eb152f867eb53cba6a887ff1a28b2b8" target="_top" xlink:title="set range">
<polygon fill="white" stroke="#666666" points="270.12,-96 171.62,-96 171.62,-76 270.12,-76 270.12,-96"/>
<text xml:space="preserve" text-anchor="middle" x="220.88" y="-82.5" font-family="Helvetica,sans-Serif" font-size="10.00">opt300x_set_range</text>
</a>
</g>
</g>
<!-- Node1&#45;&gt;Node22 -->
<g id="edge21_Node000001_Node000022" class="edge">
<title>Node1&#45;&gt;Node22</title>
<g id="a_edge21_Node000001_Node000022"><a xlink:title=" ">
<path fill="none" stroke="#63b8ff" d="M56.69,-447.74C63,-395.1 94.15,-155.86 145,-105 149.44,-100.55 154.77,-97.1 160.51,-94.42"/>
<polygon fill="#63b8ff" stroke="#63b8ff" points="161.64,-97.74 169.76,-90.93 159.17,-91.19 161.64,-97.74"/>
</a>
</g>
</g>
<!-- Node23 -->
<g id="Node000023" class="node">
<title>Node23</title>
<g id="a_Node000023"><a xlink:href="group__opt300x__base__driver.html#ga221a256ef3cc0f4e3d1648a2adc189d7" target="_top" xlink:title="set the chip type">
<polygon fill="white" stroke="#666666" points="267.5,-58 174.25,-58 174.25,-38 267.5,-38 267.5,-58"/>
<text xml:space="preserve" text-anchor="middle" x="220.88" y="-44.5" font-family="Helvetica,sans-Serif" font-size="10.00">opt300x_set_type</text>
</a>
</g>
</g>
<!-- Node1&#45;&gt;Node23 -->
<g id="edge22_Node000001_Node000023" class="edge">
<title>Node1&#45;&gt;Node23</title>
<g id="a_edge22_Node000001_Node000023"><a xlink:title=" ">
<path fill="none" stroke="#63b8ff" d="M56.42,-447.77C61.63,-391.9 89.28,-124.04 145,-67 150.04,-61.84 156.27,-58.01 162.97,-55.17"/>
<polygon fill="#63b8ff" stroke="#63b8ff" points="164,-58.52 172.34,-51.99 161.75,-51.89 164,-58.52"/>
</a>
</g>
</g>
<!-- Node24 -->
<g id="Node000024" class="node">
<title>Node24</title>
<g id="a_Node000024"><a xlink:href="group__opt300x__base__driver.html#ga4c4e85d329d1b6ee72bb7b5d836477d8" target="_top" xlink:title="start the chip reading">
<polygon fill="white" stroke="#666666" points="296.75,-20 145,-20 145,0 296.75,0 296.75,-20"/>
<text xml:space="preserve" text-anchor="middle" x="220.88" y="-6.5" font-family="Helvetica,sans-Serif" font-size="10.00">opt300x_start_continuous_read</text>
</a>
</g>
</g>
<!-- Node1&#45;&gt;Node24 -->
<g id="edge23_Node000001_Node000024" class="edge">
<title>Node1&#45;&gt;Node24</title>
<g id="a_edge23_Node000001_Node000024"><a xlink:title=" ">
<path fill="none" stroke="#63b8ff" d="M56.21,-447.58C60.46,-388.12 84.47,-92.18 145,-29 145.61,-28.36 146.24,-27.75 146.88,-27.15"/>
<polygon fill="#63b8ff" stroke="#63b8ff" points="148.83,-30.06 154.85,-21.34 144.71,-24.4 148.83,-30.06"/>
</a>
</g>
</g>
</g>
</svg>
